<svg xmlns="http://www.w3.org/2000/svg">
    <defs>
        <symbol id="hamburger" viewBox="0 0 24 24" fill="none" stroke="currentColor" stroke-width="2" stroke-linecap="round" stroke-linejoin="round" class="lucide lucide-menu"><line x1="4" x2="20" y1="12" y2="12"/><line x1="4" x2="20" y1="6" y2="6"/><line x1="4" x2="20" y1="18" y2="18"/></symbol>
        <symbol id="github" viewBox="0 0 24 24" fill="none" stroke="currentColor" stroke-width="2" stroke-linecap="round" stroke-linejoin="round" class="lucide lucide-github"><path d="M15 22v-4a4.8 4.8 0 0 0-1-3.5c3 0 6-2 6-5.5.08-1.25-.27-2.48-1-3.5.28-1.15.28-2.35 0-3.5 0 0-1 0-3 1.5-2.64-.5-5.36-.5-8 0C6 2 5 2 5 2c-.3 1.15-.3 2.35 0 3.5A5.403 5.403 0 0 0 4 9c0 3.5 3 5.5 6 5.5-.39.49-.68 1.05-.85 1.65-.17.6-.22 1.23-.15 1.85v4"/><path d="M9 18c-4.51 2-5-2-7-2"/></symbol>
        <symbol id="rocket" viewBox="0 0 24 24" fill="none" stroke="currentColor" stroke-width="2" stroke-linecap="round" stroke-linejoin="round" class="lucide lucide-rocket"><path d="M4.5 16.5c-1.5 1.26-2 5-2 5s3.74-.5 5-2c.71-.84.7-2.13-.09-2.91a2.18 2.18 0 0 0-2.91-.09z"/><path d="m12 15-3-3a22 22 0 0 1 2-3.95A12.88 12.88 0 0 1 22 2c0 2.72-.78 7.5-6 11a22.35 22.35 0 0 1-4 2z"/><path d="M9 12H4s.55-3.03 2-4c1.62-1.08 5 0 5 0"/><path d="M12 15v5s3.03-.55 4-2c1.08-1.62 0-5 0-5"/></symbol>
        <symbol id="connection:online" viewBox="0 0 24 24" fill="none" stroke="currentColor" stroke-width="3" stroke-linecap="round" stroke-linejoin="round" class="lucide lucide-wifi"><path d="M5 13a10 10 0 0 1 14 0"/><path d="M8.5 16.5a5 5 0 0 1 7 0"/><path d="M2 8.82a15 15 0 0 1 20 0"/><line x1="12" x2="12.01" y1="20" y2="20"/></symbol>
        <symbol id="connection:offline" viewBox="0 0 24 24" fill="none" stroke="currentColor" stroke-width="3" stroke-linecap="round" stroke-linejoin="round" class="lucide lucide-wifi-off"><line x1="2" x2="22" y1="2" y2="22"/><path d="M8.5 16.5a5 5 0 0 1 7 0"/><path d="M2 8.82a15 15 0 0 1 4.17-2.65"/><path d="M10.66 5c4.01-.36 8.14.9 11.34 3.76"/><path d="M16.85 11.25a10 10 0 0 1 2.22 1.68"/><path d="M5 13a10 10 0 0 1 5.24-2.76"/><line x1="12" x2="12.01" y1="20" y2="20"/></symbol>
        <symbol id="connection:unknown" viewBox="0 0 24 24" fill="none" stroke="currentColor" stroke-width="3" stroke-linecap="round" stroke-linejoin="round" class="lucide lucide-refresh-cw"><path d="M3 12a9 9 0 0 1 9-9 9.75 9.75 0 0 1 6.74 2.74L21 8"/><path d="M21 3v5h-5"/><path d="M21 12a9 9 0 0 1-9 9 9.75 9.75 0 0 1-6.74-2.74L3 16"/><path d="M8 16H3v5"/></symbol>
        <symbol id="x" viewBox="0 0 24 24" fill="none" stroke="currentColor" stroke-width="3" stroke-linecap="round" stroke-linejoin="round" class="lucide lucide-x"><path d="M18 6 6 18"/><path d="m6 6 12 12"/></symbol>
        <symbol id="check" viewBox="0 0 24 24" fill="none" stroke="currentColor" stroke-width="2" stroke-linecap="round" stroke-linejoin="round" class="lucide lucide-check-circle-2"><path d="M12 22c5.523 0 10-4.477 10-10S17.523 2 12 2 2 6.477 2 12s4.477 10 10 10z"/><path d="m9 12 2 2 4-4"/></symbol>
        <symbol id="cancel" viewBox="0 0 24 24" fill="none" stroke="currentColor" stroke-width="2" stroke-linecap="round" stroke-linejoin="round" class="lucide lucide-ban"><circle cx="12" cy="12" r="10"/><path d="m4.9 4.9 14.2 14.2"/></symbol>
        <symbol id="more:vertical" viewBox="0 0 24 24" fill="none" stroke="currentColor" stroke-width="3" stroke-linecap="round" stroke-linejoin="round" class="lucide lucide-more-vertical"><circle cx="12" cy="12" r="1"/><circle cx="12" cy="5" r="1"/><circle cx="12" cy="19" r="1"/></symbol>
        <symbol id="more:horizontal" viewBox="0 0 24 24" fill="none" stroke="currentColor" stroke-width="2" stroke-linecap="round" stroke-linejoin="round" class="lucide lucide-more-horizontal"><circle cx="12" cy="12" r="1"/><circle cx="19" cy="12" r="1"/><circle cx="5" cy="12" r="1"/></symbol>
        <symbol id="chevron:up" viewBox="0 0 24 24" fill="none" stroke="currentColor" stroke-width="3" stroke-linecap="round" stroke-linejoin="round" class="lucide lucide-chevron-up"><path d="m18 15-6-6-6 6"/></symbol>
        <symbol id="chevron:down" viewBox="0 0 24 24" fill="none" stroke="currentColor" stroke-width="3" stroke-linecap="round" stroke-linejoin="round" class="lucide lucide-chevron-down"><path d="m6 9 6 6 6-6"/></symbol>
        <symbol id="chevron:left" viewBox="0 0 24 24" fill="none" stroke="currentColor" stroke-width="3" stroke-linecap="round" stroke-linejoin="round" class="lucide lucide-chevron-left"><path d="m15 18-6-6 6-6"/></symbol>
        <symbol id="chevron:right" viewBox="0 0 24 24" fill="none" stroke="currentColor" stroke-width="3" stroke-linecap="round" stroke-linejoin="round" class="lucide lucide-chevron-right"><path d="m9 18 6-6-6-6"/></symbol>
        <symbol id="chevron:double-left" viewBox="0 0 24 24" fill="none" stroke="currentColor" stroke-width="3" stroke-linecap="round" stroke-linejoin="round" class="lucide lucide-chevrons-left"><path d="m11 17-5-5 5-5"/><path d="m18 17-5-5 5-5"/></symbol>
        <symbol id="chevron:double-right" viewBox="0 0 24 24" fill="none" stroke="currentColor" stroke-width="3" stroke-linecap="round" stroke-linejoin="round" class="lucide lucide-chevrons-right"><path d="m6 17 5-5-5-5"/><path d="m13 17 5-5-5-5"/></symbol>
        <symbol id="chevron:up-down" viewBox="0 0 24 24" fill="none" stroke="currentColor" stroke-width="2" stroke-linecap="round" stroke-linejoin="round" class="lucide lucide-chevrons-up-down"><path d="m7 15 5 5 5-5"/><path d="m7 9 5-5 5 5"/></symbol>
        <symbol id="filter" viewBox="0 0 24 24" fill="none" stroke="currentColor" stroke-width="2" stroke-linecap="round" stroke-linejoin="round" class="lucide lucide-filter"><polygon points="22 3 2 3 10 12.46 10 19 14 21 14 12.46 22 3"/></symbol>
        <symbol id="arrow:up-down" viewBox="0 0 24 24" fill="none" stroke="currentColor" stroke-width="2" stroke-linecap="round" stroke-linejoin="round" class="lucide lucide-arrow-down-up"><path d="m3 16 4 4 4-4"/><path d="M7 20V4"/><path d="m21 8-4-4-4 4"/><path d="M17 4v16"/></symbol>
        <symbol id="arrow:up" viewBox="0 0 24 24" fill="none" stroke="currentColor" stroke-width="2" stroke-linecap="round" stroke-linejoin="round" class="lucide lucide-move-up"><path d="M8 6L12 2L16 6"/><path d="M12 2V22"/></symbol>
        <symbol id="arrow:up:alpha" viewBox="0 0 24 24" fill="none" stroke="currentColor" stroke-width="2" stroke-linecap="round" stroke-linejoin="round" class="lucide lucide-arrow-up-a-z"><path d="m3 8 4-4 4 4"/><path d="M7 4v16"/><path d="M20 8h-5"/><path d="M15 10V6.5a2.5 2.5 0 0 1 5 0V10"/><path d="M15 14h5l-5 6h5"/></symbol>
        <symbol id="arrow:up:numeric" viewBox="0 0 24 24" fill="none" stroke="currentColor" stroke-width="2" stroke-linecap="round" stroke-linejoin="round" class="lucide lucide-arrow-up-0-1"><path d="m3 8 4-4 4 4"/><path d="M7 4v16"/><rect x="15" y="4" width="4" height="6" ry="2"/><path d="M17 20v-6h-2"/><path d="M15 20h4"/></symbol>
        <symbol id="arrow:down" viewBox="0 0 24 24" fill="none" stroke="currentColor" stroke-width="2" stroke-linecap="round" stroke-linejoin="round" class="lucide lucide-move-down"><path d="M8 18L12 22L16 18"/><path d="M12 2V22"/></symbol>
        <symbol id="arrow:down:alpha" viewBox="0 0 24 24" fill="none" stroke="currentColor" stroke-width="2" stroke-linecap="round" stroke-linejoin="round" class="lucide lucide-arrow-down-z-a"><path d="m3 16 4 4 4-4"/><path d="M7 4v16"/><path d="M15 4h5l-5 6h5"/><path d="M15 20v-3.5a2.5 2.5 0 0 1 5 0V20"/><path d="M20 18h-5"/></symbol>
        <symbol id="arrow:down:numeric" viewBox="0 0 24 24" fill="none" stroke="currentColor" stroke-width="2" stroke-linecap="round" stroke-linejoin="round" class="lucide lucide-arrow-down-1-0"><path d="m3 16 4 4 4-4"/><path d="M7 20V4"/><path d="M17 10V4h-2"/><path d="M15 10h4"/><rect x="15" y="14" width="4" height="6" ry="2"/></symbol>
        <symbol id="alert" viewBox="0 0 24 24" fill="none" stroke="currentColor" stroke-width="2" stroke-linecap="round" stroke-linejoin="round" class="lucide lucide-alert-triangle"><path d="m21.73 18-8-14a2 2 0 0 0-3.48 0l-8 14A2 2 0 0 0 4 21h16a2 2 0 0 0 1.73-3Z"/><path d="M12 9v4"/><path d="M12 17h.01"/></symbol>
        <symbol id="trash" viewBox="0 0 24 24" fill="none" stroke="currentColor" stroke-width="2" stroke-linecap="round" stroke-linejoin="round" class="lucide lucide-trash-2"><path d="M3 6h18"/><path d="M19 6v14c0 1-1 2-2 2H7c-1 0-2-1-2-2V6"/><path d="M8 6V4c0-1 1-2 2-2h4c1 0 2 1 2 2v2"/><line x1="10" x2="10" y1="11" y2="17"/><line x1="14" x2="14" y1="11" y2="17"/></symbol>
        <symbol id="clipboard" viewBox="0 0 24 24" fill="none" stroke="currentColor" stroke-width="2" stroke-linecap="round" stroke-linejoin="round" class="lucide lucide-clipboard"><rect width="8" height="4" x="8" y="2" rx="1" ry="1"/><path d="M16 4h2a2 2 0 0 1 2 2v14a2 2 0 0 1-2 2H6a2 2 0 0 1-2-2V6a2 2 0 0 1 2-2h2"/></symbol>
        <symbol id="circle-ellipsis" viewBox="0 0 24 24" fill="none" stroke="currentColor" stroke-width="2" stroke-linecap="round" stroke-linejoin="round" class="lucide lucide-circle-ellipsis"><circle cx="12" cy="12" r="10"/><path d="M17 12h.01"/><path d="M12 12h.01"/><path d="M7 12h.01"/></symbol>
        <symbol id="help" viewBox="0 0 24 24" fill="none" stroke="currentColor" stroke-width="2" stroke-linecap="round" stroke-linejoin="round" class="lucide lucide-help-circle"><circle cx="12" cy="12" r="10"/><path d="M9.09 9a3 3 0 0 1 5.83 1c0 2-3 3-3 3"/><path d="M12 17h.01"/></symbol>
        <symbol id="infinity" viewBox="0 0 24 24" fill="none" stroke="currentColor" stroke-width="2" stroke-linecap="round" stroke-linejoin="round" class="lucide lucide-infinity"><path d="M12 12c-2-2.67-4-4-6-4a4 4 0 1 0 0 8c2 0 4-1.33 6-4Zm0 0c2 2.67 4 4 6 4a4 4 0 0 0 0-8c-2 0-4 1.33-6 4Z"/></symbol>
        <symbol id="dot" viewBox="0 0 24 24" fill="none" stroke="currentColor" stroke-width="6" stroke-linecap="round" stroke-linejoin="round" class="lucide lucide-dot"><circle cx="12.5" cy="12.5" r="2"/></symbol>
    </defs>
</svg>
