<svg xmlns="http://www.w3.org/2000/svg">
    <defs>
        <symbol id="fuel" viewBox="0 0 24 24" fill="none" stroke="currentColor" stroke-width="2" stroke-linecap="round" stroke-linejoin="round" class="lucide lucide-zap"><polygon points="13 2 3 14 12 14 11 22 21 10 12 10 13 2"/></symbol>
        <symbol id="cargo" viewBox="0 0 24 24" fill="none" stroke="currentColor" stroke-width="2" stroke-linecap="round" stroke-linejoin="round" class="lucide lucide-package"><path d="M16.5 9.4 7.55 4.24"/><path d="M21 16V8a2 2 0 0 0-1-1.73l-7-4a2 2 0 0 0-2 0l-7 4A2 2 0 0 0 3 8v8a2 2 0 0 0 1 1.73l7 4a2 2 0 0 0 2 0l7-4A2 2 0 0 0 21 16z"/><polyline points="3.29 7 12 12 20.71 7"/><line x1="12" x2="12" y1="22" y2="12"/></symbol>
        <symbol id="crew" viewBox="0 0 24 24" fill="none" stroke="currentColor" stroke-width="2" stroke-linecap="round" stroke-linejoin="round" class="lucide lucide-person-standing"><circle cx="12" cy="5" r="1"/><path d="m9 20 3-6 3 6"/><path d="m6 8 6 2 6-2"/><path d="M12 10v4"/></symbol>
        <symbol id="condition" viewBox="0 0 24 24" fill="none" stroke="currentColor" stroke-width="2" stroke-linecap="round" stroke-linejoin="round" class="lucide lucide-wrench"><path d="M14.7 6.3a1 1 0 0 0 0 1.4l1.6 1.6a1 1 0 0 0 1.4 0l3.77-3.77a6 6 0 0 1-7.94 7.94l-6.91 6.91a2.12 2.12 0 0 1-3-3l6.91-6.91a6 6 0 0 1 7.94-7.94l-3.76 3.76z"/></symbol>
        <symbol id="pin" viewBox="0 0 24 24" fill="none" stroke="currentColor" stroke-width="2" stroke-linecap="round" stroke-linejoin="round" class="lucide lucide-map-pin"><path d="M20 10c0 6-8 12-8 12s-8-6-8-12a8 8 0 0 1 16 0Z"/><circle cx="12" cy="10" r="3"/></symbol>
        <symbol id="navigate" viewBox="0 0 24 24" fill="none" stroke="currentColor" stroke-width="2" stroke-linecap="round" stroke-linejoin="round" class="lucide lucide-navigation"><polygon points="3 11 22 2 13 21 11 13 3 11"/></symbol>
        <symbol id="warp" viewBox="0 0 24 24" fill="none" stroke="currentColor" stroke-width="2" stroke-linecap="round" stroke-linejoin="round" class="lucide lucide-arrow-big-right-dash"><path d="M5 9v6"/><path d="M9 9h3V5l7 7-7 7v-4H9V9z"/></symbol>
        <symbol id="jump" viewBox="0 0 24 24" fill="none" stroke="currentColor" stroke-width="2" stroke-linecap="round" stroke-linejoin="round" class="lucide lucide-redo-dot"><circle cx="12" cy="17" r="1"/><path d="M21 7v6h-6"/><path d="M3 17a9 9 0 0 1 9-9 9 9 0 0 1 6 2.3l3 2.7"/></symbol>
        <symbol id="anchor" viewBox="0 0 24 24" fill="none" stroke="currentColor" stroke-width="2" stroke-linecap="round" stroke-linejoin="round" class="lucide lucide-anchor"><circle cx="12" cy="5" r="3"/><line x1="12" x2="12" y1="22" y2="8"/><path d="M5 12H2a10 10 0 0 0 20 0h-3"/></symbol>
        <symbol id="modules" viewBox="0 0 24 24" fill="none" stroke="currentColor" stroke-width="2" stroke-linecap="round" stroke-linejoin="round" class="lucide lucide-circuit-board"><rect width="18" height="18" x="3" y="3" rx="2"/><path d="M11 9h4a2 2 0 0 0 2-2V3"/><circle cx="9" cy="9" r="2"/><path d="M7 21v-4a2 2 0 0 1 2-2h4"/><circle cx="15" cy="15" r="2"/></symbol>
        <symbol id="mounts" viewBox="0 0 24 24" fill="none" stroke="currentColor" stroke-width="2" stroke-linecap="round" stroke-linejoin="round" class="lucide lucide-component"><path d="M5.5 8.5 9 12l-3.5 3.5L2 12l3.5-3.5Z"/><path d="m12 2 3.5 3.5L12 9 8.5 5.5 12 2Z"/><path d="M18.5 8.5 22 12l-3.5 3.5L15 12l3.5-3.5Z"/><path d="m12 15 3.5 3.5L12 22l-3.5-3.5L12 15Z"/></symbol>
        <symbol id="power" viewBox="0 0 24 24" fill="none" stroke="currentColor" stroke-width="2" stroke-linecap="round" stroke-linejoin="round" class="lucide lucide-cable"><path d="M4 9a2 2 0 0 1-2-2V5h6v2a2 2 0 0 1-2 2Z"/><path d="M3 5V3"/><path d="M7 5V3"/><path d="M19 15V6.5a3.5 3.5 0 0 0-7 0v11a3.5 3.5 0 0 1-7 0V9"/><path d="M17 21v-2"/><path d="M21 21v-2"/><path d="M22 19h-6v-2a2 2 0 0 1 2-2h2a2 2 0 0 1 2 2Z"/></symbol>
    </defs>
</svg>
