<svg xmlns="http://www.w3.org/2000/svg">
    <defs>
        <symbol id="fuel" viewBox="0 0 24 24" fill="none" stroke="currentColor" stroke-width="2" stroke-linecap="round" stroke-linejoin="round" class="lucide lucide-zap"><polygon points="13 2 3 14 12 14 11 22 21 10 12 10 13 2"/></symbol>
        <symbol id="cargo" viewBox="0 0 24 24" fill="none" stroke="currentColor" stroke-width="2" stroke-linecap="round" stroke-linejoin="round" class="lucide lucide-package"><path d="M16.5 9.4 7.55 4.24"/><path d="M21 16V8a2 2 0 0 0-1-1.73l-7-4a2 2 0 0 0-2 0l-7 4A2 2 0 0 0 3 8v8a2 2 0 0 0 1 1.73l7 4a2 2 0 0 0 2 0l7-4A2 2 0 0 0 21 16z"/><polyline points="3.29 7 12 12 20.71 7"/><line x1="12" x2="12" y1="22" y2="12"/></symbol>
        <symbol id="crew" viewBox="0 0 24 24" fill="none" stroke="currentColor" stroke-width="2" stroke-linecap="round" stroke-linejoin="round" class="lucide lucide-person-standing"><circle cx="12" cy="5" r="1"/><path d="m9 20 3-6 3 6"/><path d="m6 8 6 2 6-2"/><path d="M12 10v4"/></symbol>
    </defs>
</svg>
